<svg xmlns="http://www.w3.org/2000/svg" width="106px" height="68px" viewBox="0 0 106 68"
     version="1.1">
    <!-- Generator: Sketch 3.3.3 (12081) - http://www.bohemiancoding.com/sketch -->
    <title>Group</title>
    <desc>Created with Sketch.</desc>
    <defs/>
    <g id="Page-1" stroke="none" stroke-width="1" fill="none" fill-rule="evenodd">
        <g id="ares" transform="translate(1.000000, -148.000000)" stroke="#070808"
           fill="#020202">
            <g id="Group" transform="translate(0.000000, 149.000000)">
                <path
                    d="M73.8,10.2 C73.8,10.3 73.8,10.3 73.8,10.2 C71.7,11 69.8,12.8 69.1,15 C68.4,17.2 68.9,19.9 70.6,21.5 C72.3,23.1 75,23.7 77.1,22.7 C78.3,22.1 79.4,20.8 79.3,19.4 C79.2,18 77.9,16.9 76.6,16.4 C77.7,14.8 80.2,14.6 81.7,15.8 C83.2,17 83.8,19.1 83.4,21 C82.8,24.6 79.5,27.3 76,27.9 C66.9,29.4 60.3,20.5 63.7,12.1 C64.7,9.8 66.7,7.6 69.2,7.6 C70.9,7.8 72.6,8.9 73.8,10.2 L73.8,10.2 Z"
                    id="Shape"/>
                <path
                    d="M87.4,0.5 C87.5,1.7 87.6,2.8 87.6,4 C85.8,4.3 84.6,6.5 85.3,8.1 C86,9.7 88.5,10.3 89.9,9.2 C91,8 90,6.1 88.9,4.8 C87.8,3.5 86.6,2 87.4,0.5 C91.9,-0.5 96.6,0.1 100.6,2.1 C101,2.3 101.5,2.6 101.7,3 C102.5,4.6 99.6,5.6 99.2,7.3 C98.9,8.4 99.7,9.6 100.8,10 C101.9,10.5 103.1,10.4 104.2,10.3 C103.2,13.1 100.3,14.6 98.5,16.9 C96.1,20 95.9,24.1 96,28 C96.1,32.4 96.3,36.8 95.6,41.1 C94.9,45.4 93.1,49.7 89.8,52.6 C88.7,53.5 87.3,54.7 87.8,56.1 C88.1,56.8 88.8,57.2 89.5,57.4 C92.1,58.2 94.8,57.4 97.5,57.4 C100.2,57.4 103.4,59.1 103.2,61.8 C103.1,63.4 101.8,64.7 100.3,65.3 C98.8,65.9 97.2,65.8 95.6,65.8 C91.1,65.7 86.5,65.6 82,65.5 C71.6,65.3 61.3,65 50.9,64.8 C51.7,61.4 52.5,57.5 50.5,54.5 C48.7,51.9 45.2,51 42.1,50.6 C32,49.3 21.5,50.7 12,54.5 C11.5,54.7 10.9,55 10.7,55.4 C9.9,56.7 11.8,58 13.3,58.3 C21.6,59.7 29.8,55.1 38.2,55.3 C40.5,55.3 43.2,56 44.1,58.2 C45,60.3 43.5,62.8 41.5,63.9 C39.5,65 37.1,65 34.8,65 L11.2,65 C7,65 -1.9,63.5 0.4,57.1 C1.1,55.2 2.7,53.8 4.2,52.4 C7,50 9.8,47.6 12.6,45.2 C16.1,42.2 19.7,39.1 23.8,36.9 C27.9,34.7 32.7,33.5 37.2,34.4 C40.8,35.1 44.3,37.1 47.9,36.6 C53.2,35.9 56.3,30.4 61,27.6 C64,31.7 68.8,34.3 73.9,34.5 C78.9,34.7 84,32.5 87.3,28.7 C89.2,26.5 90.5,23.8 90.6,21 C90.7,18.2 89.6,15.2 87.4,13.4 C86.4,12.6 85.1,12 84,11.3 C81.3,9.4 79.5,6.4 77.9,3.5 C80.7,1.9 84,0.9 87.4,0.5 L87.4,0.5 Z"
                    id="Shape"/>
            </g>
        </g>
    </g>
</svg>
