<?xml version="1.0" encoding="UTF-8" standalone="no"?>
<svg width="236px" height="146px" viewBox="0 0 236 146" version="1.1" xmlns="http://www.w3.org/2000/svg">
    <!-- Generator: Sketch 3.3.3 (12081) - http://www.bohemiancoding.com/sketch -->
    <title>Group</title>
    <desc>Created with Sketch.</desc>
    <defs></defs>
    <g id="Page-1" stroke="none" stroke-width="1" fill="none" fill-rule="evenodd">
        <g id="ares" transform="translate(1.000000, -346.000000)" stroke="#020202" fill="#000000">
            <g id="Group" transform="translate(0.000000, 347.000000)">
                <path
                    d="M2.875,29.125 C7.5,28 12.5,28.375 17.25,27 C22.125,25.625 26.75,22.875 29.625,18.75 C21,13.125 9.375,12.5 0.125,17 C1.125,11.125 4.375,5.375 9.625,2.375 C15,-0.625 21.625,-0.375 27.375,1.75 C33.125,3.875 38.125,7.375 43.125,10.875 C43.375,20.75 37.875,30.625 28.875,34.875 C21,38.625 7.75,37.375 2.875,29.125 L2.875,29.125 Z"
                    id="Shape"></path>
                <path
                    d="M200.75,56.125 C203.375,54.25 207.625,55.875 209.75,58.125 C212,60.625 212.5,64.5 211.125,67.625 C209.75,70.75 206.625,72.875 203.25,73.25 C205.5,73.125 201.125,57.5 200.75,56.125 L200.75,56.125 Z"
                    id="Shape"></path>
                <path
                    d="M180.875,57.125 C184.25,55.625 188.625,56.625 190.875,59.5 C191.875,60.75 192.5,62.375 193,63.875 C194.125,67.875 194,72.375 191.75,75.875 C190.375,78 188.25,79.75 185.75,80.375 C181.375,81.5 181.875,80.375 181.625,77 C181.375,70.125 182.625,64 180.875,57.125 L180.875,57.125 L180.875,57.125 Z"
                    id="Shape"></path>
                <path
                    d="M166.625,87 C163.5,87.125 160.75,84.875 159.25,82.25 C156.125,76.5 156.375,68.25 158.875,62.375 C160.25,59 163.125,55.875 166.75,55 C170.5,57.25 172,62 172.375,66.375 C172.75,70.75 172.5,75.125 171.375,79.25 C170.5,82.25 169.25,85.25 166.625,87 L166.625,87 Z"
                    id="Shape"></path>
                <path
                    d="M15.375,58.875 C15.25,56 15,53.125 14.5,50.375 C19.375,54.25 23.625,58.75 27.375,63.75 C32.625,62.25 38,61.5 43.5,61.5 C45,61.5 46.75,61.5 48,62.5 C49.75,63.75 50.125,66.125 50.375,68.25 C50.875,72.75 51.125,77.125 51.25,81.625 C51.375,84.875 51.125,88.625 48.625,90.625 C46.25,92.625 42.75,92.375 39.75,91.625 C35.25,90.5 31,88.75 27,86.25 C26.125,85.75 25.25,85.125 24.375,85.125 C23.625,85.125 23,85.375 22.25,85.625 C17.25,87.5 12.375,89.5 7.375,91.375 C8.625,86.875 10.625,82.5 13,78.375 C9.5,75.75 5.5,73.375 2.5,70.25 C4.875,67.5 11.625,66.625 15.25,65.875 C15.375,63.5 15.5,61.25 15.375,58.875 L15.375,58.875 Z"
                    id="Shape"></path>
                <path
                    d="M204.5,42.5 L204.5,42.5 C207,34.375 212.75,27.25 220.125,22.875 C230,31.625 234.375,45.5 233.75,58.625 C233.125,71.75 228,84.375 221.125,95.625 C220.25,97 212.25,90.125 211.625,89.375 C207.875,85.125 207.375,83.875 211.5,80.875 C217.875,76.125 222.625,69.125 222.25,60.75 C221.75,51.5 213.875,42.875 204.5,42.5 L204.5,42.5 Z"
                    id="Shape"></path>
                <path
                    d="M58.375,55.75 C59.875,55.75 61.125,54.125 61.375,52.625 C61.625,51.125 61,49.5 60.375,48 C58.25,43 54.875,38.5 50.75,35 C53.5,30.25 55.625,25.25 57.375,20.125 C64.125,27.875 68,38.125 68,48.5 C68,49.375 68,50.25 68.5,50.875 C68.875,51.375 69.5,51.625 70.25,51.875 C73.5,52.625 77,50.875 79.125,48.125 C81.25,45.5 82.125,42.125 82.875,38.75 C84.25,32.875 85.125,26.875 84.25,20.875 C83.375,14.875 80.625,9.125 75.75,5.625 C74.375,4.625 72.625,3.25 73.25,1.75 C73.875,0.125 76.25,0.5 77.75,1.375 C85.25,5.375 89.125,14.375 89.5,22.875 C89.875,31.375 87.375,39.75 84.875,48 C89.875,50.25 96,49 100.375,45.75 C104.75,42.5 107.625,37.5 109.25,32.25 C112.625,22 111.75,10.375 106.875,0.75 C110.625,0.625 114,3.375 115.625,6.75 C117.25,10.125 117.375,14 117.125,17.625 C116.375,28.75 111.875,39.625 104.5,48.125 C110,50.875 117,49.375 121.875,45.75 C126.875,42.125 130.125,36.625 132.875,31.125 C137.25,22 140.5,11.625 138.125,1.75 C141.625,3 143.875,6.625 144.25,10.375 C144.625,14.125 143.75,17.75 142.5,21.25 C138.75,31.875 132.5,41.5 124.375,49.25 C136.125,52.125 149.125,49 158.25,41.25 C167.375,33.5 172.625,21.125 171.625,9.125 C177,13.5 177.5,22 174.625,28.25 C171.625,34.625 166.125,39.25 160.5,43.375 C155,47.625 149.125,51.75 145.375,57.625 C140,65.875 139.625,77.125 144.375,85.75 C147.875,92 153.5,96.5 159,101.125 C164.5,105.625 170,110.625 172.75,117.125 C175.625,123.625 175,132.125 169.625,136.75 C166.875,131.75 168.5,125.5 167.375,119.875 C165.875,112.75 160,107.375 154.125,103 C149.75,99.75 145.125,96.625 140,95.25 C134.875,93.875 128.75,94.5 124.625,98 C130.625,102.5 136.625,107.25 140.875,113.375 C145.25,119.5 147.75,127.375 146,134.625 C145.375,137.25 143.375,140.125 140.75,139.5 C141.75,129.25 139.625,118.375 133,110.5 C126.375,102.625 115,98.375 105.375,101.875 C110.5,108.375 115.875,115.25 117.125,123.5 C118.5,131.625 114.25,141.375 106.25,143.25 C111.75,135.375 113.625,124.75 109.875,116 C106.125,107.125 96.25,101 86.875,102.625 C89.5,110.125 92.25,118 91.625,125.875 C91,133.875 85.875,142 78.125,143.625 C80.625,138.125 83.625,132.875 85.625,127.125 C87.5,121.375 88.25,115 85.875,109.375 C83.5,103.875 77.625,99.5 71.625,100.625 C71.75,107.375 71.875,114.25 70,120.75 C68.125,127.25 64,133.5 57.75,136.125 C57.125,131.875 55,125.5 55.75,121.25 C56.5,117 60.875,111.875 62.875,108 C63.875,106.125 65,104.125 65,101.875 C65,99.625 63.125,97.375 61,97.625 C67.625,90.25 68,79.375 67.125,69.5 C66.875,66.5 66.5,63.5 65.125,60.75 C63.875,58.125 61.25,55.875 58.375,55.75 L58.375,55.75 L58.375,55.75 Z"
                    id="Shape"></path>
                <path
                    d="M42.625,121.625 C42.875,122.375 42.875,123.25 42.875,124.125 C42.875,127.25 42.75,130.25 42.5,133.375 C42.375,135 42.25,136.5 41.625,138 C40,141.75 35.625,143.25 31.625,143.75 C24.75,144.5 17.5,142.75 11.875,138.75 C7.25,135.5 0.625,127.75 1.875,121.75 C10.125,125.25 17.75,127.875 26.875,126.5 C23.875,120.25 19.25,114.875 13.5,111.125 C23.375,109.625 34,112.875 41.25,119.75 C41.75,120.25 42.25,120.75 42.625,121.375 L42.625,121.625 L42.625,121.625 Z"
                    id="Shape"></path>
            </g>
        </g>
    </g>
</svg>
