<svg xmlns="http://www.w3.org/2000/svg" width="84px" height="56px" viewBox="0 0 84 56" version="1.1">
    <!-- Generator: Sketch 3.3.3 (12081) - http://www.bohemiancoding.com/sketch -->
    <title>Shape</title>
    <desc>Created with Sketch.</desc>
    <defs/>
    <g id="Page-1" stroke="none" stroke-width="1" fill="none" fill-rule="evenodd">
        <g id="zodiacz" transform="translate(1.000000, -13.000000)" stroke="#000000" fill="#000000">
            <path
                d="M80.1,45.2 C79.9,46.9 79.6,48.7 78.5,50.1 C77.5,51.5 75.6,52.5 73.9,52 C72.9,53.7 72,55.4 71,57.1 C69.6,56 69.6,53.9 70,52.2 C70.4,50.5 71.1,48.7 70.7,47 C70.3,45.3 68.2,43.8 66.8,44.9 C66.3,45.3 66,45.9 65.8,46.5 C65.2,47.9 64.6,49.4 64,50.8 C63.8,51.4 63.5,52 63.6,52.6 C63.7,53.3 64.2,53.8 64.3,54.5 C64.6,56 62.8,57 61.4,57.7 C60,58.4 58.4,59.8 59.2,61.2 C59.9,62.5 61.7,62.2 63.2,61.9 C66.4,61.2 69.8,61.6 72.7,63 C73.3,63.7 73.1,64.9 72.4,65.5 C71.7,66.1 70.8,66.4 69.9,66.6 C64.9,67.7 59.6,68.4 54.9,66.6 C54.4,66.4 53.9,66.2 53.4,66.1 C52.7,66 51.9,66.1 51.2,66.2 C42.2,67.5 33.1,67.9 24,67.4 C22.5,67.3 21.1,67.2 19.6,67.4 C17.4,67.6 15.1,68.4 13,67.6 C10.7,66.7 9.6,64.1 7.6,62.7 C7.2,62.4 6.8,62.2 6.3,62.2 C5.2,62.2 4.5,63.5 4.4,64.6 C4.2,66 4.7,67.7 3.1,67.6 C1.8,67.5 0.5,65.7 0.2,64.6 C-0.3,63 0.2,61.1 1.5,60 C2.2,59.3 3.2,58.9 3.9,58.2 C4.7,57.4 5.1,56.3 5.7,55.2 C6.9,53.1 8.8,51.5 10.7,50 C13.9,47.4 17.7,44.6 21.7,45.5 C23.2,45.8 24.6,46.6 26.1,47.1 C30.9,48.8 36.2,47 41.1,45.3 C37.1,44.4 33.1,42.4 30.8,39 C27.3,33.8 28.7,26.2 33.1,21.6 C37.5,17 44.1,15.2 50.4,15.2 C55.2,15.3 60,16.3 64.1,18.7 C68.2,21.1 71.6,24.8 73.2,29.3 C71.2,29.4 69.2,29.5 67.2,29.6 C65.8,26.4 62.9,23.9 59.7,22.6 C56.5,21.2 52.9,20.9 49.3,20.9 C45.8,21 42.2,21.5 39.1,23.3 C36,25.1 33.6,28.2 33.5,31.7 C33.4,34.6 34.8,37.5 37,39.4 C39.2,41.3 42.1,42.4 45,42.7 L45,44.3 C47.2,43.9 49.2,43 50.9,41.6 C46.9,39.4 44.3,34.8 44.5,30.2 C44.5,29.1 44.7,27.9 45.4,27 C46.9,24.8 50.1,25 52.8,25.4 C48.5,29 48.3,36.5 52.3,40.4 C56,37.3 60.4,35 65.2,33.7 C63.8,32.4 62.9,30.7 62.7,28.8 C64.8,28.9 66.8,29.4 68.9,29.5 C71,29.6 73.3,29.2 74.7,27.6 C76.7,25.5 76.3,21.9 74.6,19.6 C72.9,17.3 70.3,15.8 67.7,14.5 C71.5,13.9 75.6,15.6 77.9,18.8 C80.2,21.9 80.6,26.4 78.9,29.9 C79.7,29.9 80.5,29.8 81.3,29.8 C81.5,29.8 81.8,29.8 82,29.9 C82.6,30.3 81.9,31.2 81.4,31.8 C79.8,33.4 79.8,36.1 80.2,38.3 C80.3,40.6 80.9,43 80.1,45.2 C78.9,44.8 77.8,44.3 76.6,43.9 C78.2,42.3 77.8,39.2 75.8,38.1 C75.2,37.8 74.5,37.6 73.9,37.9 C73.1,38.2 72.8,39.2 72.9,40 C73,40.8 73.5,41.5 74.1,42.1 C75.7,43.7 77.8,44.8 80.1,45.2 C80.1,45.1 80.1,45.1 80.1,45.2 L80.1,45.2 Z"
                id="Shape"/>
        </g>
    </g>
</svg>
