<?xml version="1.0" encoding="UTF-8" standalone="no"?>
<svg width="182px" height="128px" viewBox="0 0 182 128" version="1.1" xmlns="http://www.w3.org/2000/svg">
    <!-- Generator: Sketch 3.3.3 (12081) - http://www.bohemiancoding.com/sketch -->
    <title>Shape</title>
    <desc>Created with Sketch.</desc>
    <defs></defs>
    <g id="Page-1" stroke="none" stroke-width="1" fill="none" fill-rule="evenodd">
        <g id="ares" transform="translate(-488.000000, -384.000000)" stroke="#020202" fill="#090505">
            <path
                d="M656.75,395 C654.125,382.125 631.25,382.625 622.625,388.375 C616.75,392.375 614.625,398.25 611.375,404.25 C607.875,410.625 603.5,413 597.125,415.75 C594.5,416.875 590.25,418.5 588.75,421.25 C586.75,425.125 588.375,426.25 584.125,428.625 C578.5,431.875 572.25,434.25 566.375,436.875 C554,442.5 541.875,446.125 532.625,456.375 C523.125,466.875 518.75,477.25 516.125,491 C515.75,492.625 515.375,494.375 514.875,496 C507.5,496 501.5,495.125 500,486.75 C498.875,480.5 500.875,472.5 502.75,466.5 C506.875,452.625 513.125,440.125 523.375,429.75 C533.375,419.5 536.875,402.375 521.125,395.625 C511,391.25 488.125,393.375 488.5,408.875 C488.625,415 498.125,419.625 503.625,418.375 C509.25,417.125 514,406.5 519.125,408.625 C520.5,409.125 522,411.625 523.125,412.75 C517.5,423.5 510.75,432.25 503.375,441.875 C496.5,450.875 493,463.125 491.625,474.25 C490.5,483.625 492.875,514.25 509.125,511.25 C514.125,510.375 515.875,507.875 521.25,509 C525.5,509.875 529.625,510.625 534,510.75 C542.875,511.125 551.75,509.75 560.625,508.875 C565.5,508.375 570.5,507.875 575.5,507.625 C579,507.5 585.375,509.125 588.25,506.875 C593,503 587.375,497.75 583.125,497.125 C578.25,496.375 573,497.25 568.25,498.125 C567.875,497.75 567.5,497.125 567.25,496.625 C572.75,490.5 577,480.875 565.5,478.125 C561.75,477.25 556.875,478.375 553.25,476.75 C548.25,474.5 549.5,469.75 554.125,467.875 C561.125,465 571.625,467.125 577.625,471.125 C580.625,473.125 595.75,485.375 598.5,477.375 C599.5,474.25 593.5,470.125 592.625,467.375 C591.375,463.125 594.125,459.5 597.875,457.875 C603.25,455.5 605.5,457.375 605,462.875 C604.5,468.125 606,468.875 609.125,472.875 C611.5,476 613.125,479.75 613.875,483.625 C614.25,485.625 614.625,487.625 614,489.625 C613.625,491.25 611.875,492.75 611.875,494.375 C611.875,497.375 617.125,501 619.5,503 C623.125,505.875 625.375,506 630,505.875 C635.875,505.625 651.875,505.625 644.375,495.875 C643.125,494.25 641.5,492.75 639.375,492.625 C637.25,492.375 635.75,494.375 633.875,494.375 C629.75,494.25 628.125,488.875 627.25,485.5 C626.75,483.625 626.5,481.75 626.5,479.75 C634.375,480.25 636.25,477.75 640.125,471.375 C643.125,466.5 649,463 650.875,457.5 C652.75,451.75 650,446.125 649,440.5 C647.875,434.125 651.25,428.25 657.5,433.125 C660.375,435.375 661.625,438.5 663.125,434.375 C664.25,431.25 663.25,426 663.375,422.625 C659.625,419.875 659.25,424.625 655.875,423.25 C652.75,422 653.25,417.5 654,414.875 C654.625,412.375 656.25,408.875 659.125,408.125 C662.5,407.25 663.75,410.5 666.625,407.25 C668.75,404.875 669.25,400.625 669.5,397.625 C663.125,396.25 658.125,393.5 653.625,397.75 C649.625,401.5 643.75,403.625 639,398.5 C639.5,391.625 652.375,389.75 654.25,396.25 C654.625,396.25 656.25,395.5 656.75,395 L656.75,395 Z"
                id="Shape"></path>
        </g>
    </g>
</svg>
