<?xml version="1.0" encoding="UTF-8" standalone="no"?>
<svg width="98px" height="64px" viewBox="0 0 98 64" version="1.1" xmlns="http://www.w3.org/2000/svg">
    <!-- Generator: Sketch 3.3.3 (12081) - http://www.bohemiancoding.com/sketch -->
    <title>Group</title>
    <desc>Created with Sketch.</desc>
    <defs></defs>
    <g id="Page-1" stroke="none" stroke-width="1" fill="none" fill-rule="evenodd">
        <g id="zodiacz" transform="translate(-270.000000, -135.000000)" fill="#000000">
            <g id="Group"
               transform="translate(318.500000, 167.000000) rotate(-2.000000) translate(-318.500000, -167.000000) translate(270.000000, 135.000000)">
                <path
                    d="M19.9639535,48.5052632 C20.1895349,38.2877193 20.527907,28.0701754 20.7534884,17.8526316 C25.2651163,28.1824561 29.6639535,38.5122807 34.1755814,48.8421053 C22.7837209,48.6175439 11.5046512,48.2807018 0.112790698,47.7192982 C4.17325581,57.6 14.3244186,64.4491228 25.1523256,60.8561404 C30.9046512,58.9473684 35.5290698,54.3438596 38.0104651,48.8421053 C37.4465116,48.8421053 36.8825581,48.8421053 36.3186047,48.7298246 C31.5813953,37.8385965 26.9569767,27.0596491 22.2197674,16.1684211 C21.7686047,15.045614 21.2046512,13.8105263 21.3174419,12.5754386 C21.4302326,11.5649123 21.7686047,10.6666667 21.8813953,9.65614035 C21.994186,8.64561404 21.2046512,7.52280702 20.3023256,7.52280702 C19.4,7.52280702 18.8360465,8.64561404 18.8360465,9.54385965 C18.8360465,10.4421053 19.1744186,11.3403509 19.1744186,12.2385965 C19.1744186,13.4736842 18.6104651,14.7087719 18.0465116,15.9438596 C12.7453488,26.6105263 7.44418605,37.1649123 2.25581395,47.8315789 C2.81976744,47.8315789 3.49651163,47.8315789 4.06046512,47.9438596 C9.13604651,37.8385965 14.2116279,27.845614 19.1744186,17.7403509 C18.9488372,27.9578947 18.6104651,38.1754386 18.3848837,48.3929825 C18.7232558,48.5052632 19.4,48.5052632 19.9639535,48.5052632 L19.9639535,48.5052632 Z"
                    id="Shape" stroke="#000000"></path>
                <path
                    d="M78.1639535,49.7774577 C78.3895349,39.5599139 78.727907,29.34237 78.9534884,19.1248262 C83.4651163,29.4546507 87.8639535,39.7844753 92.3755814,50.1142998 C80.9837209,49.8897384 69.7046512,49.5528963 58.3127907,48.9914928 C62.3732558,58.8721946 72.5244186,65.7213174 83.3523256,62.1283349 C89.1046512,60.219563 93.7290698,55.6160542 96.2104651,50.1142998 C95.6465116,50.1142998 95.0825581,50.1142998 94.5186047,50.0020191 C89.7813953,39.1107911 85.1569767,28.3318437 80.4197674,17.4406156 C79.9686047,16.3178086 79.4046512,15.0827209 79.5174419,13.8476332 C79.6302326,12.8371069 79.9686047,11.9388612 80.0813953,10.9283349 C80.194186,9.91780861 79.4046512,8.79500159 78.5023256,8.79500159 C77.6,8.79500159 77.0360465,9.91780861 77.0360465,10.8160542 C77.0360465,11.7142998 77.3744186,12.6125454 77.3744186,13.5107911 C77.3744186,14.7458788 76.8104651,15.9809665 76.2465116,17.2160542 C70.9453488,27.8827209 65.644186,38.4371069 60.455814,49.1037735 C61.0197674,49.1037735 61.6965116,49.1037735 62.2604651,49.2160542 C67.3360465,39.1107911 72.4116279,29.1178086 77.3744186,19.0125454 C77.1488372,29.2300893 76.8104651,39.4476332 76.5848837,49.665177 C76.9232558,49.7774577 77.6,49.7774577 78.1639535,49.7774577 L78.1639535,49.7774577 Z"
                    id="Shape-Copy" stroke="#000000"></path>
                <path
                    d="M11.6174419,10.2175439 C12.0686047,10.2175439 12.6325581,10.2175439 13.0837209,10.1052632 C13.1965116,11.3403509 13.3093023,12.5754386 13.3093023,13.922807 C9.8127907,13.8105263 4.51162791,13.3614035 2.59418605,9.88070175 C1.91744186,8.53333333 1.80465116,6.84912281 2.48139535,5.61403509 C3.15813953,4.26666667 4.7372093,3.48070175 6.20348837,3.70526316 C7.66976744,3.92982456 8.91046512,5.50175439 8.68488372,6.96140351 C8.68488372,7.29824561 8.45930233,7.63508772 8.45930233,7.97192982 C8.45930233,8.98245614 9.24883721,9.76842105 10.1511628,10.1052632 C10.6023256,10.2175439 11.0534884,10.2175439 11.6174419,10.2175439 L11.6174419,10.2175439 Z"
                    id="Shape" stroke="#000000"></path>
                <path
                    d="M95.1953488,12.426051 C95.6465116,12.426051 96.2104651,12.426051 96.6616279,12.3137703 C96.7744186,13.5488581 96.8872093,14.7839458 96.8872093,16.1313142 C93.3906977,16.0190335 88.0895349,15.5699107 86.172093,12.0892089 C85.4953488,10.7418405 85.3825581,9.05762999 86.0593023,7.82254227 C86.7360465,6.47517385 88.3151163,5.68920894 89.7813953,5.91377034 C91.2476744,6.13833174 92.4883721,7.71026157 92.2627907,9.16991069 C92.2627907,9.5067528 92.0372093,9.8435949 92.0372093,10.180437 C92.0372093,11.1909633 92.8267442,11.9769282 93.7290698,12.3137703 C94.1802326,12.426051 94.6313953,12.426051 95.1953488,12.426051 L95.1953488,12.426051 Z"
                    id="Shape-Copy-3" stroke="#000000"
                    transform="translate(91.245920, 11.003509) scale(-1, 1) translate(-91.245920, -11.003509) "></path>
                <path
                    d="M26.6186047,8.30877193 L26.6186047,7.74736842 C26.6186047,7.41052632 26.6186047,7.29824561 26.844186,7.07368421 C27.1825581,6.84912281 27.6337209,6.6245614 28.0848837,6.4 C28.6488372,6.06315789 29.2127907,5.72631579 29.6639535,5.38947368 C30.7918605,4.71578947 31.9197674,4.15438596 33.0476744,3.59298246 C33.6116279,3.25614035 34.1755814,3.14385965 34.7395349,2.91929825 C35.4162791,2.69473684 35.9802326,2.69473684 36.6569767,2.58245614 L38.8,2.58245614 C39.4767442,2.69473684 40.1534884,2.91929825 40.8302326,3.14385965 C40.2662791,5.05263158 39.8151163,7.07368421 39.3639535,8.98245614 C38.3488372,8.98245614 37.2209302,8.87017544 36.205814,8.98245614 C35.1906977,8.98245614 34.1755814,8.98245614 33.1604651,9.20701754 C32.1453488,9.43157895 31.1302326,9.76842105 30.227907,10.1052632 C29.2127907,10.4421053 28.3104651,11.0035088 27.2953488,11.3403509 C26.6186047,10.6666667 26.505814,9.43157895 26.6186047,8.30877193 L26.6186047,8.30877193 Z"
                    id="Shape" stroke="#000000"></path>
                <path
                    d="M58.162657,9.43157895 L58.162657,8.87017544 C58.162657,8.53333333 58.162657,8.42105263 58.3882384,8.19649123 C58.7266105,7.97192982 59.1777733,7.74736842 59.6289361,7.52280702 C60.1928896,7.18596491 60.756843,6.84912281 61.2080058,6.5122807 C62.3359128,5.83859649 63.4638198,5.27719298 64.5917268,4.71578947 C65.1556803,4.37894737 65.7196337,4.26666667 66.2835872,4.04210526 C66.9603314,3.81754386 67.5242849,3.81754386 68.2010291,3.70526316 L70.3440523,3.70526316 C71.0207965,3.81754386 71.6975407,4.04210526 72.3742849,4.26666667 C71.8103314,6.1754386 71.3591686,8.19649123 70.9080058,10.1052632 C69.8928896,10.1052632 68.7649826,9.99298246 67.7498663,10.1052632 C66.73475,10.1052632 65.7196337,10.1052632 64.7045175,10.3298246 C63.6894012,10.554386 62.6742849,10.8912281 61.7719593,11.2280702 C60.756843,11.5649123 59.8545175,12.1263158 58.8394012,12.4631579 C58.162657,11.7894737 58.0498663,10.554386 58.162657,9.43157895 L58.162657,9.43157895 Z"
                    id="Shape-Copy-2" stroke="#000000"
                    transform="translate(65.249419, 8.084211) scale(-1, 1) translate(-65.249419, -8.084211) "></path>
                <path
                    d="M46.8549521,0.425986842 L43.6149732,11.2532895 L47.2713084,14.7598684 L47.0901163,42.348136 L49.627907,42.348136 L51.8826195,14.6381579 L55.3930096,11.6973684 L53.1619788,0.374451754 L46.8549521,0.425986842 Z M49.627907,10.1052632 C50.8737586,10.1052632 51.8837209,9.09986751 51.8837209,7.85964912 C51.8837209,6.61943074 50.8737586,5.61403509 49.627907,5.61403509 C48.3820553,5.61403509 47.372093,6.61943074 47.372093,7.85964912 C47.372093,9.09986751 48.3820553,10.1052632 49.627907,10.1052632 Z"
                    id="Path-24"></path>
            </g>
        </g>
    </g>
</svg>
