<?xml version="1.0" encoding="UTF-8" standalone="no"?>
<svg width="103px" height="67px" viewBox="0 0 103 67" version="1.1" xmlns="http://www.w3.org/2000/svg">
    <!-- Generator: Sketch 3.3.3 (12081) - http://www.bohemiancoding.com/sketch -->
    <title>Group</title>
    <desc>Created with Sketch.</desc>
    <defs></defs>
    <g id="Page-1" stroke="none" stroke-width="1" fill="none" fill-rule="evenodd">
        <g id="zodiacz" transform="translate(-126.000000, -128.000000)" stroke="#000000" fill="#000000">
            <g id="Group" transform="translate(126.000000, 128.000000)">
                <path
                    d="M91.2,12 C91.2,13.7 91.1,15.5 91.1,17.2 C93,17.1 94.6,19.5 93.7,21.2 C92.8,22.9 89.9,23 88.9,21.4 C87.9,19.8 89.2,17.2 91.1,17.2 C91.1,15.5 91.1,13.8 91.2,12 C96.5,12.9 101,17.8 101.2,23.3 C101.2,24.1 95.7,26 94.9,26.3 C92.6,27.1 90.2,27.7 87.8,28 C85.1,28.4 84.2,28.1 82.7,25.7 C81.5,23.7 80.7,21.5 80.6,19.1 C80.4,15.6 81.7,12.2 84,9.6 C86.5,10.5 88.8,11.2 91.2,12 L91.2,12 Z"
                    id="Shape"></path>
                <path
                    d="M70.7,2.7 C70.5,2.5 70.4,2.3 70.2,2.1 C71.5,0.2 74.7,0.5 76.1,2.3 C77.6,4 77.7,6.6 77.2,8.8 C76.7,11 75.7,13.1 75.1,15.3 C73.9,19.9 75,25 77.8,28.8 C70.1,29.2 62.4,28.9 54.8,27.8 C52.8,27.5 50.6,27.2 48.8,28.2 C46.7,29.3 45.8,31.9 43.9,33.4 C41.1,35.8 37,35.3 33.4,34.7 C35.1,31.8 37.4,29.2 40.1,27.2 C33.9,25.4 27,25.8 21.1,28.4 C18.7,29.5 16.4,30.9 14.3,32.7 C13.2,33.6 12.2,34.7 11.2,35.8 C10.5,36.7 9.7,38.4 8.7,38.9 C3.3,41.9 8,28.1 8.9,26.5 C4.9,23.8 1.9,19.6 0.6,15 C5.5,17.3 10.8,19.2 16.2,19.4 C21.6,19.6 27.3,17.9 31.1,14 C27.7,12.3 23.8,11.5 19.9,11.8 C21.6,9.7 23.4,7.8 25.5,6.2 C26.6,5.3 27.8,4.4 29.3,4.3 C31.2,4 33,5 34.3,6.4 C35.6,7.8 36.4,9.5 37.2,11.3 C42.1,9.6 47.1,8.5 52.3,8 C51,6.4 49,5.4 47,5.1 C48.6,3.9 50.8,3.9 52.7,4.3 C54.6,4.8 56.4,5.7 58.3,6.4 C63.4,8.2 69,7.8 74.4,7.3 C73.2,5.8 71.9,4.3 70.7,2.7 L70.7,2.7 Z"
                    id="Shape"></path>
                <path
                    d="M14.4,60.6 C14.3,59.3 14.1,57.9 14,56.6 C15.9,56.5 17.2,53.9 16.1,52.3 C15,50.7 12.2,50.9 11.4,52.6 C10.6,54.3 12.1,56.7 14,56.5 C14.2,57.9 14.3,59.2 14.4,60.6 C16,61.2 17.9,61.8 19.5,61.1 C20.8,60.5 21.6,59.2 22.1,57.9 C24,53.1 22.8,47.2 19.1,43.6 C15,45 11.1,46.8 7.3,49 C6,49.7 4.7,50.6 4.1,51.9 C3.3,53.7 4,55.9 5.4,57.3 C6.7,58.6 8.3,59 10,59.5 C10.6,59.6 14.4,60.4 14.4,60.6 L14.4,60.6 Z"
                    id="Shape"></path>
                <path
                    d="M57.4,61.5 C52.5,61.9 47.7,62.2 42.8,62.4 C40.1,62.5 37.3,62.5 34.6,62.5 C32.2,62.5 28.7,63 26.4,62.2 C27.2,58.7 28.8,55.9 28.7,52 C28.7,51.1 26.7,41.6 25.4,42.2 C32.5,39.2 40.9,42.7 48.4,40.8 C50.3,40.3 52.1,39.5 54,39 C55.9,38.6 58,38.5 59.7,39.6 C57.5,39.8 55.5,41 54.2,42.8 C58.4,43.9 62.6,44.9 66.8,46 C67.4,44.4 67.2,42.7 67.3,41 C67.4,39.3 68.1,37.5 69.7,36.9 C70.7,36.5 71.8,36.8 72.9,37.1 C75.5,37.8 78.2,38.5 80.8,39.2 C78.4,40.6 76.6,42.9 75.8,45.5 C78.7,47.4 82.7,46.9 85.7,45.2 C88.7,43.5 91.1,40.8 93.5,38.3 C95.9,35.8 98.6,33.4 102,32.5 C102.5,37.5 97.7,41.6 97.6,46.6 C97.6,47.9 97.9,49.2 98.2,50.5 C99.2,54.7 100.1,58.9 101.1,63 C95.8,61.7 93.4,54.6 88.1,53.2 C86.1,52.7 84.1,53.1 82.1,53.5 C77.4,54.7 72.9,56.6 68.8,59.1 C69.6,59.9 70.4,60.7 70.8,61.7 C71.2,62.7 71.1,64.1 70.3,64.8 C69.7,65.3 68.9,65.5 68.1,65.6 C66.2,65.9 64.3,66.1 62.5,65.5 C60.7,64.9 59.3,63 59.8,61.2 C58.9,61.3 58.2,61.4 57.4,61.5 L57.4,61.5 Z"
                    id="Shape"></path>
            </g>
        </g>
    </g>
</svg>
