<?xml version="1.0" encoding="UTF-8" standalone="no"?>
<svg width="93px" height="58px" viewBox="0 0 93 58" version="1.1" xmlns="http://www.w3.org/2000/svg">
    <!-- Generator: Sketch 3.3.3 (12081) - http://www.bohemiancoding.com/sketch -->
    <title>Shape</title>
    <desc>Created with Sketch.</desc>
    <defs></defs>
    <g id="Page-1" stroke="none" stroke-width="1" fill="none" fill-rule="evenodd">
        <g id="zodiacz" transform="translate(-26.000000, -141.000000)" stroke="#000000" fill="#000000">
            <path
                d="M93.2,142.9 C93.2,143.6 92.9,144.3 93.7,145 C94.5,145.7 96.1,145.9 97.1,146.3 C101.7,148 106.6,150.1 109.9,153.9 C111.9,156.2 112.9,158.8 113.9,161.6 C112.2,161.4 110.7,160.5 109.3,159.8 C108.1,159.2 108.3,159.6 107.6,158.1 C107.2,157.3 106.8,156.5 106.3,155.7 C104.4,152.8 101.7,150.4 98.5,149 C96.1,147.9 93.5,145.9 91.2,147.5 C87.4,150.1 83.8,152.8 80,155.5 C76.9,157.7 73.7,160 70.6,162.2 C73,162.8 75.5,163.1 78,163.7 C81.2,164.5 84,165.6 87.2,165.1 C92.8,164.3 97.4,166.8 102.9,167.5 C104.6,167.7 106.2,167.6 107.4,166.4 C107.9,165.9 108,164.8 108.8,164.9 C109.5,164.9 109.9,166.2 109.9,166.8 C112.3,167.4 114.9,166.5 117.2,167.3 C117,167.8 116.9,168.4 116.8,168.9 C117.1,169 117.3,169.3 117.6,169.3 C117.1,170 117.3,170.8 117.9,171.3 C116.3,172.8 116.7,173.9 114.2,174.1 C112.4,174.2 110.7,173.8 109,173.4 C105.7,172.6 102,173.4 98.6,173.6 C95,173.8 91.1,173.9 87.6,173.1 C84,172.2 80.9,171.1 77.1,171 C73.1,170.9 69.3,170.4 65.4,170.2 C65.1,172.7 66.5,174.4 67.6,176.5 C68.7,178.6 69,180.4 68.9,182.7 C75.6,185.5 82.3,188.4 89.1,191.3 C92.1,192.6 92.9,193.2 96.1,192 C99,190.9 101.6,189.2 103.9,187.3 C106.8,184.9 108.5,181.9 109.8,178.4 C111,178.5 112.2,178.6 113.5,178.7 C111.6,183.4 109.1,187.1 104.8,189.8 C102.8,191.1 100.7,191.9 98.4,192.6 C97.5,192.9 95.8,193.1 95,193.7 C93.9,194.5 94.3,195.4 93.6,196.5 C92.9,197.6 91.5,198.4 90.4,197.2 C89.4,196 90.4,194.8 91.2,193.8 C84.6,191 78,188.2 71.4,185.4 C70.5,185 69.5,184.6 68.6,184.2 C68.6,186.7 69.3,188.3 70,190.6 C70.7,193 70.5,195.2 70.1,197.7 C64.1,197.6 58.1,197.6 52.1,197.5 L49.5,197.5 C49.3,192.9 46.8,186.4 42.2,184.3 C39.5,183.1 37.4,184.2 36.3,187 C35.4,189.3 34.9,192.7 38.1,192.7 C39.8,192.7 41.1,191.6 42.2,193.3 C42.9,194.4 42.9,196.2 43,197.5 C43,197.6 32.2,197.5 31.1,197.3 C28.1,196.6 26.9,194.4 27.1,191.4 C27.3,188.6 28.2,185.8 28.8,183.1 C30,177.8 29.5,170.8 35,167.8 C37.6,166.4 40.8,165.7 39.8,162 C39.1,159.3 36.2,156.8 34.6,154.5 C33,152.1 33.8,148.9 35.4,146.6 C37.1,144 39.8,142.6 43,142.1 C45.7,141.7 48.7,142.2 50.8,143.9 C52.2,145 51.6,146.3 52.6,147.4 C53.5,148.4 55.9,148.4 56,150.1 C56,150.6 55.3,151.3 55,151.8 C56.1,152.6 55.9,153.1 56.1,154.2 C56.2,154.8 56,154.9 56.1,155.5 C56.2,155.9 56.8,156.3 56.8,156.7 C56.8,158.4 53.6,158.4 52.7,159.7 C51.6,161.3 52.6,163.8 54.4,164.2 C56.2,164.6 58.2,163.5 59.8,162.8 C61.6,162 63.5,161 65.5,161.1 C66.8,161.1 68.2,161.9 69.4,161.5 C70.8,161 72.4,159.3 73.6,158.5 C75.9,156.9 78.2,155.2 80.5,153.6 C84.1,151 87.6,148.5 91.2,145.9 C90.5,145 89.3,143.9 89.9,142.7 C90.4,141.8 92.2,141.5 93,142.3 C93.1,142.3 93.2,142.6 93.2,142.9 L93.2,142.9 Z"
                id="Shape"></path>
        </g>
    </g>
</svg>
