<?xml version="1.0" encoding="UTF-8" standalone="no"?>
<svg width="86px" height="54px" viewBox="0 0 86 54" version="1.1" xmlns="http://www.w3.org/2000/svg">
    <!-- Generator: Sketch 3.3.3 (12081) - http://www.bohemiancoding.com/sketch -->
    <title>scorpio copy</title>
    <desc>Created with Sketch.</desc>
    <defs></defs>
    <g id="Page-1" stroke="none" stroke-width="1" fill="none" fill-rule="evenodd">
        <g id="scorpio-copy"
           transform="translate(42.500000, 26.500000) rotate(-90.000000) translate(-42.500000, -26.500000) translate(16.000000, -16.000000)"
           stroke="#000000" fill="#000000">
            <g id="Page-1">
                <g id="zodiacz">
                    <g id="Group">
                        <path
                            d="M18.3,22 C17.3,21.3 13.1,23.7 12,24.1 C11.3,23.1 10.9,21.6 10.9,20.3 C10.8,19 11.2,17.5 12.1,16.6 C12.8,15.9 13.8,15.6 14.8,15.6 C16,15.6 17.4,16.2 17.7,17.4 C17.9,18.2 17.7,19 17.6,19.8 C17.5,20.6 17.6,21.6 18.3,22 L18.3,22 L18.3,22 Z"
                            id="Shape"></path>
                        <path
                            d="M19.9,8.3 C20,8.9 19.8,9.5 19.6,10.1 C19.2,11 18.6,11.9 18.5,12.9 C16.7,11.6 14.8,11.4 12.7,11.4 C12.5,9.1 15.4,7.1 17.4,6.8 C18.1,6.7 18.9,6.8 19.4,7.3 C19.7,7.5 19.8,7.9 19.9,8.3 L19.9,8.3 L19.9,8.3 Z"
                            id="Shape"></path>
                        <path
                            d="M24.1,32.7 C23.3,31 16.6,34.5 15.8,34.9 C15,33.9 14.4,32.5 14.1,31.2 C13.8,29.8 14.1,28.2 15.1,27.3 C16.6,25.9 19.2,26.2 20.8,27.5 C22.5,28.8 23.3,30.8 24.1,32.7 L24.1,32.7 L24.1,32.7 Z"
                            id="Shape"></path>
                        <path
                            d="M23.6,6 C23.4,5.7 23.2,5.2 23,4.4 C22.8,3.8 21.3,1.4 20.3,1.8 C21.4,1.3 22.5,0.8 23.6,0.7 C24.8,0.5 26,0.7 26.9,1.4 C27.8,2.1 28.4,3.4 27.9,4.5 C27.6,5.3 26.7,5.9 25.8,6.1 C24.5,6.5 23.9,6.4 23.6,6 L23.6,6 L23.6,6 Z"
                            id="Shape"></path>
                        <path
                            d="M33,80.6 C33,80.7 33,80.8 33.1,80.9 C32,80.6 31,80.3 29.9,80 C29.5,80.8 27.9,84.2 26.9,84.3 C25.8,84.4 24.4,79.8 23.7,80 C22.8,80.2 21.9,80.4 21,80.5 C20.9,77.2 23.1,73.9 26.2,72.7 C29.6,74 32.3,77.1 33,80.6 L33,80.6 L33,80.6 Z"
                            id="Shape"></path>
                        <path
                            d="M32.2,3.6 L32.2,3.6 C33.3,4.1 34.5,4.8 35.3,5.7 C36.2,6.6 36.7,8 36.4,9.2 C35.4,13.4 31.4,9.6 29.9,8.4 C31,7 31.8,5.4 32.2,3.6 L32.2,3.6 L32.2,3.6 Z"
                            id="Shape"></path>
                        <path
                            d="M38.3,13.9 C38.9,13.5 39.3,12.9 39.6,12.3 C40.2,13.4 40.5,14.7 40.1,15.9 C39,18.7 35.9,17.3 35.4,15 C36.4,14.9 37.5,14.6 38.3,13.9 L38.3,13.9 L38.3,13.9 Z"
                            id="Shape"></path>
                        <path
                            d="M30.7,43.7 C27.7,42.8 24.6,42.8 21.6,43.6 C20.8,43.8 19.9,44.1 19.1,44.1 C17.3,44 15.9,42.5 14.4,41.4 C13.4,40.7 12.2,40.2 11,39.9 C9.9,39.6 7.9,39.9 7.2,39.2 C8,38.3 9.4,38.5 10.4,38.8 C13.1,39.5 15.6,40.6 18.1,41.9 C17.2,40.6 18,38.6 19.3,37.8 C20.7,36.9 22.4,36.9 24,37 C24.8,37 25.5,37.1 26.2,37.4 C28.3,38.2 29.3,40.5 30.1,42.6 C31.7,40.9 33.3,39.1 35.3,38 C37.3,36.9 40,36.5 42,37.7 C41.3,37.8 40.6,37.9 40,37.9 C36.2,38.3 32.8,40.5 30.7,43.7 L30.7,43.7 L30.7,43.7 Z"
                            id="Shape"></path>
                        <path
                            d="M42.8,31.9 C43.7,29.1 42.5,25.7 40,24.1 C38.9,23.4 38.2,30 38.2,30.5 C36.8,29.6 35.5,27.8 35.4,26.1 C35.3,24.3 36.3,22.7 37.6,21.5 C37.7,21.4 37.9,21.2 38.1,21.2 C38.4,21.1 38.6,21.2 38.9,21.2 C39.9,21.3 40.9,21.1 41.8,20.6 C43.3,22.1 44.9,23.6 45.3,25.7 C45.9,27.9 44.8,30.5 42.8,31.9 L42.8,31.9 L42.8,31.9 Z"
                            id="Shape"></path>
                        <path
                            d="M5.7,78.4 L5,78.4 C4.3,80.3 4.3,82.5 5,84.4 C2.1,83.2 -0.2,82.1 0.3,78.5 C0.5,76.9 1.3,75.4 2.2,74 C3.8,71.5 5.8,69.2 8,67.3 C8.3,67 8.6,66.8 9,66.6 C9.4,66.5 9.9,66.5 10.4,66.5 C13.1,66.8 15.9,67.2 18.6,67.9 C18.3,66.5 18,65.2 17.8,63.8 C17.7,63.5 17.7,63.1 17.4,62.8 C17.2,62.5 16.8,62.3 16.4,62.2 C14.4,61.4 12.3,60.8 10.2,60.3 C8.8,60 7.3,59.8 6,60.2 C4.5,60.7 3.3,62.1 1.7,62.2 C2,60.3 4.3,59.3 6.2,59.1 C10,58.6 14,59.5 17.3,61.5 C17.3,60.3 17.3,59.1 17.2,57.9 C17.2,57.5 17.2,57.2 17,56.8 C16.9,56.5 16.6,56.3 16.4,56.1 C12,52.6 5.5,52 0.5,54.6 C-1.86517468e-14,54 0.8,53.2 1.5,52.9 C6.6,50.5 13.1,51.5 17.3,55.3 C17.6,54.1 18,53 18.3,51.8 C18.4,51.5 18.5,51.2 18.4,50.9 C18.3,50.4 17.9,50 17.4,49.6 C13.6,46.8 8.6,45.7 3.9,46.5 C3.6,46.1 4.2,45.7 4.6,45.5 C9.1,44.1 13.9,45.9 17.9,48.5 C18.4,48.8 18.8,49.1 19.4,49.1 C19.8,49.1 20.1,49 20.5,48.8 C24.2,47.5 28.3,47.4 32,48.6 C33.8,46.2 36.3,44.2 39.2,43.2 C42.1,42.2 45.3,42.2 48.1,43.6 C49,44 50,44.7 50.1,45.8 C48.3,45.9 46.8,44.8 45.1,44.2 C41,42.9 36.5,45.2 33.7,48.5 C33.4,48.8 33.2,49.2 33.1,49.6 C33.1,49.9 33.2,50.2 33.3,50.6 C33.7,51.8 34.2,53 34.6,54.2 C36.7,52.3 39.2,50.6 41.9,50 C44.7,49.3 47.8,49.6 50.1,51.3 C50.5,51.6 50.9,52 51.1,52.5 C51.2,53 51,53.6 50.5,53.7 C48.6,51.8 45.6,51.1 43,51.6 C40.3,52 37.9,53.5 35.8,55.2 C35.6,55.4 35.3,55.6 35.2,55.9 C35.1,56.2 35.1,56.6 35.2,56.9 C35.4,58.3 35.6,59.7 35.7,61.1 C38.1,59.7 40.2,57.5 43,57.2 C46.5,56.7 49.6,59.2 52.3,61.6 C52.2,61.9 52.1,62.2 52,62.5 C50,62.2 48.5,60.4 46.7,59.5 C44.1,58.2 40.9,59 38.7,60.8 C36.5,62.6 35.3,65.4 34.7,68.2 C37,67.4 39.3,66.8 41.6,66.3 C42.9,66 44.4,65.9 45.5,66.6 C46.3,67.1 46.7,67.9 47.2,68.7 C48.4,71 49.6,73.2 50.9,75.5 C51.4,76.4 51.9,77.4 52.1,78.4 C52.6,80.8 51.4,83.4 49.3,84.6 C49.6,82.5 49,80.4 47.7,78.7 C46.4,80 45.4,81.7 45,83.5 C42.7,80.9 43.2,76.4 46,74.3 C45.2,72.5 44.2,70.8 43,69.2 C40.5,69.5 38,69.8 35.5,70.1 C34.4,70.2 33,70.7 33,71.8 C31.2,70 29.1,68.6 26.8,67.5 C24.7,68.7 22.6,70.1 20.8,71.8 C20.7,70.6 19.2,70.2 18.1,70.1 C15.9,69.9 13.7,69.7 11.5,69.5 C11.1,69.5 10.7,69.4 10.3,69.6 C10,69.7 9.7,70 9.5,70.3 C8.5,71.5 7.7,72.9 7,74.3 C9.7,75.3 11.4,78.5 10.8,81.3 C9.4,79.4 7.6,78.5 5.7,78.4 L5.7,78.4 L5.7,78.4 Z"
                            id="Shape"></path>
                    </g>
                </g>
            </g>
        </g>
    </g>
</svg>
