<?xml version="1.0" encoding="UTF-8" standalone="no"?>
<svg width="143px" height="90px" viewBox="0 0 143 90" version="1.1" xmlns="http://www.w3.org/2000/svg">
    <!-- Generator: Sketch 3.3.3 (12081) - http://www.bohemiancoding.com/sketch -->
    <title>Group</title>
    <desc>Created with Sketch.</desc>
    <defs></defs>
    <g id="Page-1" stroke="none" stroke-width="1" fill="none" fill-rule="evenodd">
        <g id="ares" transform="translate(-1.000000, -366.000000)" stroke="#0A0505" fill="#090505">
            <g id="Group" transform="translate(1.000000, 366.000000)">
                <path
                    d="M41.6,76.4 C41.5,76.3 41.5,76.1 41.4,76 C40,72.3 41.2,67.9 39.3,64.4 C39,63.9 38.7,63.3 38.8,62.8 C38.9,62.5 39.1,62.2 39.4,62 C41.8,59.5 44.2,57.1 46.6,54.6 C46.8,54.4 47.1,54.1 47.4,54.1 C47.7,54.1 47.9,54.2 48.1,54.4 C49.4,55.3 50.7,56.4 51.8,57.7 C49.1,59.5 46.1,61.9 46.2,65.2 C46.2,67.4 47.7,69.3 48.2,71.4 C48.8,73.9 48.2,76.8 49.6,78.9 C50.9,80.9 53.8,82.2 53.7,84.6 C53.7,85.1 53.5,85.7 53,85.9 C52.7,86.1 52.3,86.1 52,86.2 C49.7,86.4 44.6,86.7 43.7,83.8 C43.4,82.7 43.5,81.6 43.2,80.5 C43,78.9 42.2,77.7 41.6,76.4 L41.6,76.4 Z"
                    id="Shape"></path>
                <path
                    d="M64.6,14.9 L67.2,14.9 C84.6,14.8 101.6,8.9 119,8.7 C119,6.6 119.1,4.4 120.2,2.7 C121.3,1 124,0.1 125.5,1.5 C123.7,2.7 123.6,5.5 124.9,7.2 C126.2,8.9 128.4,9.7 130.5,9.9 C132.5,10.1 134.7,9.9 136.4,8.8 C138.1,7.7 139.2,5.5 138.5,3.5 C141.2,4.2 142.7,7.7 141.5,10.2 C140.7,11.7 139.2,12.7 138.7,14.3 C138.4,15.3 138.5,16.4 138.6,17.4 C139.3,23.9 138.7,30.5 136.8,36.7 C136.4,38.1 135.8,39.6 134.5,40.2 C131.6,41.6 127.3,38 125.5,40.7 C125,41.4 125,42.3 125,43.2 C124.9,47.6 123.8,52 121.7,55.9 C117.8,63.1 110.7,68.8 109.6,76.8 C109.1,80.8 110.3,85 112.8,88.2 C110.5,88.7 108.1,88.9 105.8,88.6 C105,88.5 104.2,88.3 103.7,87.7 C103.2,87.1 103.2,86.3 103.1,85.5 C103,79.6 102.8,73.8 102.7,67.9 C102.6,65.4 102.2,62.4 99.9,61.5 C97.3,60.5 94.7,63 93.5,65.4 C89.9,72.3 90.2,81.1 94.2,87.8 C92,88.7 89.6,89.1 87.3,88.9 C86.8,88.8 86.2,88.7 85.9,88.4 C85.5,88 85.5,87.4 85.4,86.9 C84.9,78.3 84,69.6 82.8,61.1 C82.7,60.5 82.6,59.8 82.1,59.3 C81.6,58.9 80.9,58.9 80.3,58.9 C74.4,58.9 68.3,58.6 62.8,56.5 C57.3,54.4 52.2,50.3 50.3,44.7 C49.8,43.4 49.5,41.9 48.4,41 C46.8,39.8 44.5,40.6 43.2,42 C41.9,43.4 41.3,45.4 40.6,47.2 C38.7,52 35.6,56.3 31.6,59.5 C29.7,61 27.5,62.4 26.5,64.7 C25.5,67.1 26.1,69.9 27,72.3 C28.9,77.7 31.7,82.7 35.2,87.1 C35.2,87.1 28.8,88.8 27.8,88.5 C25.6,87.7 24,84.9 23,83 C15.4,68.3 21.7,49.5 15.2,34.3 C14.6,32.8 13.5,31.2 12,31.2 C10.1,31.2 9,33.2 8.6,35 C6.7,42.5 8.4,50.4 9.1,58.1 C9.8,65.8 9.2,74.3 4,80 C1.2,78.2 0.5,74.3 1.2,71 C1.9,67.7 3.6,64.7 4.4,61.5 C6.6,52.7 2.3,43.2 4.1,34.3 C5,29.7 7.6,25.6 11,22.4 C18.1,15.8 28.3,13.6 38.1,13.5 C46.9,13.2 55.7,14.7 64.6,14.9 L64.6,14.9 Z"
                    id="Shape"></path>
            </g>
        </g>
    </g>
</svg>
