<?xml version="1.0" encoding="UTF-8" standalone="no"?>
<svg width="194px" height="122px" viewBox="0 0 194 122" version="1.1" xmlns="http://www.w3.org/2000/svg">
    <!-- Generator: Sketch 3.3.3 (12081) - http://www.bohemiancoding.com/sketch -->
    <title>Group</title>
    <desc>Created with Sketch.</desc>
    <defs></defs>
    <g id="Page-1" stroke="none" stroke-width="1" fill="none" fill-rule="evenodd">
        <g id="ares" transform="translate(-267.000000, -251.000000)" stroke="#070808" fill="#020202">
            <g id="Group" transform="translate(267.500000, 252.000000)">
                <path
                    d="M134.125,21.5 L130.875,26 L126.75,28.5 L122.25,28.5 L117.125,26.25 L121.75,20.5 L125.5,19.5 L129.375,20.625 L134.125,21.5 L134.125,21.5 Z"
                    id="Shape"></path>
                <path
                    d="M171.375,12.25 L168.125,16.625 L164.375,19.125 L160,19.5 L155,17.75 L158.625,11.375 L162.375,10.375 L167,11.25 L171.375,12.25 L171.375,12.25 Z"
                    id="Shape"></path>
                <path
                    d="M126.5,68.625 C128.125,68.125 129.625,67.375 131.25,66.5 C141.5,61.125 145.875,50.375 152.375,41.625 C157,56.125 156.75,71.25 154.625,86.125 C150.25,86.625 142.5,111.125 140.75,117.375 C149.5,118 183.625,120.875 189.125,115.75 C196.5,108.875 188.25,101.375 182.875,97.625 C173.125,90.875 173.25,95.25 162,97.125 C163.25,92.625 162.5,88.125 157.125,86.75 C159.25,73.875 159.375,63.375 157.125,50.5 C156.25,45.25 152.375,12.625 143.125,27.875 C140.5,32.25 144.625,39.5 141.625,45 C138.75,50.125 131,54.375 125.75,56.375 C109.75,62.5 104.375,51.875 90.625,46.5 C85.75,44.625 74.625,46.125 72.75,40.125 C70,31.375 82.375,34.625 86.875,34.375 C86.375,31.375 87.375,27.5 86.625,24.5 C87.25,24 88.5,24 89.125,23.625 C84.625,18.25 85.25,8.5 81.625,4.625 C76.625,-0.75 63.375,1.375 57.625,4.25 C53.875,6.125 42,14.25 40.125,18 C35.875,26.625 43.25,32.125 51.875,30.25 C55.25,44.375 26.875,46.25 18,53.625 C4.75,64.75 -2.125,71.75 1.5,89.625 C3,97 5.625,110.625 11.625,115.875 C13.625,117.625 33.375,122.5 32.875,119.375 C31.25,108.75 19,113.125 14.125,103.625 C10.25,96 10.875,84 11.625,75.625 C18.25,73.125 24,69.75 29.875,66 C24.5,84.125 23.75,102.25 32.875,119.375 C50.875,119.375 69.625,121.75 87.25,116.875 C96.375,114.375 104.25,110.375 111.125,104 C117.375,98.125 120.875,88.75 128.875,85 C137.5,94.375 124.75,107.875 118,114.5 C134.125,121.5 144.75,89.875 138.625,78.875 C128.25,59.875 106.375,73.125 93.5,82.125 C85.75,87.5 79.25,94 72.125,100.25 C69.625,97 63.625,91.5 63.125,87.125 C62.25,79.125 75.625,79.5 77.375,71.375 C78.125,67.75 72.125,63.375 75.875,59.625 C81,54.5 97.5,64.625 102.75,66.75 C111.125,70 118.5,71.375 126.5,68.625 L126.5,68.625 Z"
                    id="Shape"></path>
                <path
                    d="M136.625,0.125 L139.125,1.25 L141.375,2.875 L143.125,4.5 L144.5,6 L145.25,8.5 L145.375,10.625 L145.125,13 L144.125,15.875 L140.75,14.625 L138.5,13.125 L137.125,11.625 L136.125,9.75 L136,7.5 L136.25,5.125 L136.5,2.875 L136.625,0.125 L136.625,0.125 Z"
                    id="Shape"></path>
            </g>
        </g>
    </g>
</svg>
